<svg width="24" height="16" viewBox="0 0 24 16" fill="none" xmlns="http://www.w3.org/2000/svg">
<g clip-path="url(#clip0_76_2)">
<path d="M22.6667 6.66665H5.10669L8.94669 2.82665C9.19599 2.57735 9.33605 2.23922 9.33605 1.88665C9.33605 1.53408 9.19599 1.19595 8.94669 0.94665C8.69739 0.697347 8.35926 0.557289 8.00669 0.557289C7.65412 0.557289 7.31599 0.697347 7.06669 0.94665L0.946688 7.06665C0.823083 7.19 0.72502 7.33652 0.658111 7.49782C0.591203 7.65912 0.556763 7.83203 0.556763 8.00665C0.556763 8.18127 0.591203 8.35418 0.658111 8.51548C0.72502 8.67678 0.823083 8.8233 0.946688 8.94665L7.06669 15.0666C7.19013 15.1901 7.33668 15.288 7.49796 15.3548C7.65925 15.4216 7.83211 15.456 8.00669 15.456C8.18126 15.456 8.35413 15.4216 8.51541 15.3548C8.6767 15.288 8.82325 15.1901 8.94669 15.0666C9.07013 14.9432 9.16805 14.7967 9.23486 14.6354C9.30166 14.4741 9.33605 14.3012 9.33605 14.1266C9.33605 13.9521 9.30166 13.7792 9.23486 13.6179C9.16805 13.4566 9.07013 13.3101 8.94669 13.1866L5.10669 9.33332H22.6667C23.4 9.33332 24 8.73332 24 7.99998C24 7.26665 23.4 6.66665 22.6667 6.66665Z" fill="#666456"/>
</g>
<defs>
<clipPath id="clip0_76_2">
<rect width="24" height="16" fill="white"/>
</clipPath>
</defs>
</svg>
