<svg width="24.000000" height="24.000000" viewBox="0 0 24 24" fill="none" xmlns="http://www.w3.org/2000/svg" xmlns:xlink="http://www.w3.org/1999/xlink">
	<desc>
			Created with Pixso.
	</desc>
	<defs/>
	<path id="Vector" d="M0 19.2806L0 23.3334C0 23.7067 0.293335 24 0.666626 24L4.71936 24C4.8927 24 5.06592 23.9333 5.18591 23.8L19.744 9.25533L14.7446 4.25601L0.199951 18.8007C0.0666504 18.934 0 19.094 0 19.2806ZM23.6101 5.38919C23.7338 5.26586 23.8318 5.11936 23.8987 4.95808C23.9656 4.79681 24 4.62392 24 4.44932C24 4.27472 23.9656 4.10184 23.8987 3.94056C23.8318 3.77928 23.7338 3.63278 23.6101 3.50945L20.4906 0.38987C20.3672 0.266281 20.2207 0.168236 20.0594 0.101334C19.8982 0.0344315 19.7253 0 19.5507 0C19.3761 0 19.2032 0.0344315 19.0419 0.101334C18.8806 0.168236 18.7341 0.266281 18.6108 0.38987L16.1711 2.82954L21.1704 7.82887L23.6101 5.38919Z" fill="#666456" fill-opacity="1.000000" fill-rule="nonzero"/>
</svg>
