<svg width="30" height="30" viewBox="0 0 30 30" fill="none" xmlns="http://www.w3.org/2000/svg">
<path d="M28.1815 1.83933L28.1818 1.83965C28.8204 2.4782 28.8204 3.56471 28.1818 4.20326L17.7033 14.6818L17.3851 15L17.7033 15.3182L28.1818 25.7968C28.3384 25.9534 28.4627 26.1393 28.5474 26.3439L28.9632 26.1717L28.5474 26.3439C28.6322 26.5485 28.6758 26.7678 28.6758 26.9893C28.6758 27.2108 28.6322 27.4301 28.5474 27.6347L28.9632 27.8069L28.5474 27.6347C28.4627 27.8393 28.3384 28.0252 28.1818 28.1818C28.0252 28.3384 27.8393 28.4627 27.6347 28.5474L27.8069 28.9632L27.6347 28.5474C27.4301 28.6322 27.2108 28.6758 26.9893 28.6758C26.7678 28.6758 26.5485 28.6322 26.3439 28.5474L26.1717 28.9632L26.3439 28.5474C26.1393 28.4627 25.9534 28.3384 25.7968 28.1818L15.3182 17.7033L15 17.3851L14.6818 17.7033L4.20326 28.1818C4.04665 28.3384 3.86074 28.4627 3.65613 28.5474L3.82833 28.9632L3.65612 28.5474C3.45151 28.6322 3.23221 28.6758 3.01074 28.6758C2.78927 28.6758 2.56997 28.6322 2.36536 28.5474L2.19315 28.9632L2.36535 28.5474C2.16074 28.4627 1.97483 28.3384 1.81822 28.1818C1.66162 28.0252 1.53739 27.8393 1.45264 27.6347C1.36789 27.4301 1.32427 27.2108 1.32427 26.9893C1.32427 26.7678 1.36789 26.5485 1.45264 26.3439C1.5374 26.1393 1.66162 25.9534 1.81822 25.7968L12.2968 15.3182L12.615 15L12.2968 14.6818L1.81822 4.20326C1.66162 4.04665 1.5374 3.86074 1.45264 3.65613C1.36789 3.45151 1.32427 3.23221 1.32427 3.01074C1.32427 2.78927 1.36789 2.56997 1.45264 2.36535C1.5374 2.16074 1.66162 1.97483 1.81822 1.81822C1.97483 1.66162 2.16074 1.5374 2.36535 1.45264C2.56997 1.36789 2.78927 1.32427 3.01074 1.32427C3.23221 1.32427 3.45151 1.36789 3.65613 1.45264C3.86074 1.5374 4.04665 1.66162 4.20326 1.81822L14.6818 12.2968L14.9997 12.6147L15.3179 12.2971L25.7965 1.83998L25.7971 1.83933C25.9536 1.68256 26.1394 1.55819 26.344 1.47333C26.5485 1.38847 26.7678 1.34479 26.9893 1.34479C27.2108 1.34479 27.4301 1.38847 27.6347 1.47333C27.8392 1.55819 28.0251 1.68256 28.1815 1.83933Z" fill="#B3261E" stroke="#DFDCD1" stroke-width="0.9"/>
</svg>
