<svg width="24" height="24" viewBox="0 0 24 24" fill="none" xmlns="http://www.w3.org/2000/svg">
<g clip-path="url(#clip0_5_353)">
<path d="M0 19.28V23.3333C0 23.7067 0.293333 24 0.666667 24H4.72C4.89333 24 5.06667 23.9333 5.18667 23.8L19.7467 9.25333L14.7467 4.25333L0.2 18.8C0.0666668 18.9333 0 19.0933 0 19.28ZM23.6133 5.38667C23.7369 5.26332 23.835 5.1168 23.9019 4.9555C23.9688 4.7942 24.0033 4.62129 24.0033 4.44667C24.0033 4.27204 23.9688 4.09913 23.9019 3.93784C23.835 3.77654 23.7369 3.63002 23.6133 3.50667L20.4933 0.386668C20.37 0.263063 20.2235 0.164999 20.0622 0.0980908C19.9009 0.0311822 19.728 -0.00325775 19.5533 -0.00325775C19.3787 -0.00325775 19.2058 0.0311822 19.0445 0.0980908C18.8832 0.164999 18.7367 0.263063 18.6133 0.386668L16.1733 2.82667L21.1733 7.82667L23.6133 5.38667Z" fill="white"/>
</g>
<defs>
<clipPath id="clip0_5_353">
<rect width="24" height="24" fill="white"/>
</clipPath>
</defs>
</svg>
