<svg width="30" height="22" viewBox="0 0 30 22" fill="none" xmlns="http://www.w3.org/2000/svg">
<path d="M9.99992 17.2108L4.21658 11.3384C3.90495 11.022 3.48229 10.8443 3.04158 10.8443C2.60087 10.8443 2.17821 11.022 1.86658 11.3384C1.55495 11.6549 1.37988 12.084 1.37988 12.5315C1.37988 12.7531 1.42286 12.9725 1.50637 13.1772C1.58988 13.3819 1.71228 13.5679 1.86658 13.7246L8.83325 20.7984C9.48325 21.4584 10.5333 21.4584 11.1833 20.7984L28.8166 2.89383C29.1282 2.57741 29.3033 2.14825 29.3033 1.70075C29.3033 1.25326 29.1282 0.824102 28.8166 0.507678C28.505 0.191254 28.0823 0.0134888 27.6416 0.0134888C27.2009 0.0134888 26.7782 0.191254 26.4666 0.507678L9.99992 17.2108Z" fill="#666456"/>
</svg>
